<?xml version="1.0" encoding="UTF-8" standalone="no"?><!DOCTYPE svg PUBLIC "-//W3C//DTD SVG 1.1//EN" "http://www.w3.org/Graphics/SVG/1.1/DTD/svg11.dtd"><svg class="backasiner" width="100%" height="100%" viewBox="0 0 222 34" version="1.1" xmlns="http://www.w3.org/2000/svg" xmlns:xlink="http://www.w3.org/1999/xlink" xml:space="preserve" style="fill-rule:evenodd;clip-rule:evenodd;stroke-linejoin:round;stroke-miterlimit:1.41421;"><g><path d="M112.432,32.843l-0.605,-2.862l-0.146,0c-1.002,1.26 -2.004,2.113 -3.007,2.559c-1.002,0.446 -2.244,0.672 -3.727,0.678c-1.995,0 -3.56,-0.513 -4.698,-1.54c-1.137,-1.028 -1.701,-2.489 -1.691,-4.386c0,-4.061 3.248,-6.19 9.744,-6.388l3.413,-0.111l0,-1.253c0,-1.579 -0.34,-2.744 -1.019,-3.495c-0.679,-0.752 -1.764,-1.128 -3.256,-1.128c-1.676,0 -3.572,0.514 -5.688,1.541l-0.939,-2.33c1.029,-0.553 2.123,-0.979 3.256,-1.266c1.16,-0.303 2.353,-0.457 3.551,-0.459c2.398,0 4.175,0.533 5.331,1.597c1.156,1.065 1.735,2.774 1.736,5.126l0,13.717l-2.255,0Zm-6.88,-2.148c1.896,0 3.385,-0.52 4.468,-1.56c1.082,-1.039 1.624,-2.497 1.625,-4.372l0,-1.817l-3.046,0.126c-2.422,0.085 -4.169,0.461 -5.238,1.127c-1.07,0.667 -1.605,1.703 -1.605,3.11c0,1.101 0.333,1.939 1,2.514c0.666,0.575 1.599,0.866 2.797,0.872l-0.001,0Z" style="fill:#231f20;fill-rule:nonzero;"/><path d="M193.015,33.217c-2.951,0 -5.277,-0.901 -6.977,-2.705c-1.7,-1.803 -2.554,-4.299 -2.56,-7.488c0,-3.219 0.792,-5.776 2.377,-7.67c1.584,-1.894 3.71,-2.843 6.377,-2.845c2.502,0 4.48,0.824 5.932,2.472c1.453,1.648 2.182,3.819 2.187,6.513l0,1.912l-13.754,0c0.061,2.344 0.653,4.124 1.777,5.338c1.123,1.213 2.707,1.821 4.753,1.822c2.195,-0.009 4.366,-0.468 6.377,-1.349l0,2.694c-0.976,0.432 -1.992,0.764 -3.034,0.993c-1.138,0.222 -2.295,0.327 -3.455,0.313l0,0Zm-0.821,-18.173c-1.603,0 -2.881,0.523 -3.835,1.567c-0.954,1.045 -1.514,2.49 -1.679,4.336l10.447,0c0,-1.907 -0.425,-3.367 -1.276,-4.382c-0.851,-1.015 -2.07,-1.522 -3.657,-1.521Z" style="fill:#231f20;fill-rule:nonzero;"/><path d="M9.824,12.51c2.628,0 4.669,0.897 6.123,2.691c1.455,1.795 2.182,4.335 2.182,7.621c0,3.286 -0.734,5.84 -2.2,7.663c-1.467,1.823 -3.502,2.734 -6.105,2.733c-1.227,0.015 -2.443,-0.231 -3.568,-0.722c-1.084,-0.486 -2.019,-1.252 -2.71,-2.218l-0.219,0l-0.641,2.566l-2.172,0l0,-28.411l3.03,0l0,6.916c0,1.545 -0.049,2.933 -0.146,4.163l0.146,0c1.412,-2.002 3.505,-3.002 6.28,-3.002Zm-0.437,2.536c-2.069,0 -3.56,0.593 -4.473,1.78c-0.913,1.186 -1.369,3.185 -1.368,5.996c0,2.811 0.468,4.822 1.405,6.033c0.937,1.211 2.437,1.817 4.499,1.817c1.862,0 3.25,-0.678 4.163,-2.035c0.913,-1.357 1.369,-3.308 1.368,-5.851c0,-2.604 -0.456,-4.545 -1.368,-5.822c-0.912,-1.277 -2.322,-1.916 -4.228,-1.916l0.002,-0.002Z" style="fill:#231f20;fill-rule:nonzero;"/><path d="M40.283,32.864l-0.598,-2.85l-0.148,0c-0.995,1.251 -1.989,2.098 -2.984,2.54c-0.995,0.443 -2.23,0.664 -3.706,0.664c-1.98,0 -3.534,-0.509 -4.663,-1.529c-1.129,-1.02 -1.689,-2.471 -1.679,-4.353c0,-4.032 3.225,-6.145 9.673,-6.342l3.387,-0.11l0,-1.238c0,-1.567 -0.337,-2.723 -1.011,-3.47c-0.674,-0.746 -1.751,-1.119 -3.232,-1.119c-1.664,0 -3.546,0.51 -5.646,1.53l-0.932,-2.313c1.022,-0.549 2.107,-0.972 3.232,-1.257c1.151,-0.301 2.335,-0.454 3.525,-0.455c2.38,0 4.144,0.528 5.291,1.585c1.148,1.057 1.725,2.754 1.729,5.092l0,13.616l-2.238,0.009Zm-6.83,-2.132c1.883,0 3.361,-0.516 4.435,-1.548c1.075,-1.032 1.612,-2.477 1.612,-4.335l0,-1.803l-3.023,0.127c-2.405,0.084 -4.139,0.457 -5.201,1.119c-1.061,0.661 -1.592,1.69 -1.592,3.087c0,1.093 0.33,1.924 0.992,2.495c0.661,0.571 1.588,0.857 2.779,0.858l-0.002,0Zm-3.568,-23.24c0,-0.631 0.161,-1.086 0.483,-1.365c0.32,-0.279 0.732,-0.429 1.157,-0.42c0.435,-0.009 0.859,0.14 1.193,0.42c0.335,0.28 0.502,0.735 0.502,1.365c0,0.607 -0.167,1.06 -0.502,1.358c-0.327,0.295 -0.754,0.454 -1.193,0.446c-0.429,0.008 -0.844,-0.152 -1.157,-0.446c-0.322,-0.298 -0.483,-0.751 -0.483,-1.358Zm6.94,0c0,-0.631 0.161,-1.086 0.483,-1.365c0.32,-0.279 0.733,-0.429 1.157,-0.42c0.429,-0.007 0.847,0.143 1.175,0.42c0.334,0.28 0.502,0.735 0.502,1.365c0,0.607 -0.168,1.06 -0.502,1.358c-0.321,0.292 -0.741,0.452 -1.175,0.446c-0.429,0.008 -0.844,-0.152 -1.157,-0.446c-0.323,-0.298 -0.485,-0.751 -0.485,-1.358l0.002,0Z" style="fill:#231f20;fill-rule:nonzero;"/><path d="M59.981,33.265c-2.874,0 -5.099,-0.885 -6.677,-2.654c-1.577,-1.77 -2.364,-4.275 -2.361,-7.515c0,-3.32 0.8,-5.885 2.4,-7.697c1.6,-1.811 3.879,-2.718 6.836,-2.72c0.962,0 1.922,0.104 2.862,0.307c0.776,0.147 1.53,0.391 2.246,0.726l-0.927,2.553c-0.706,-0.277 -1.432,-0.497 -2.172,-0.658c-0.683,-0.163 -1.381,-0.251 -2.083,-0.263c-4.033,0 -6.05,2.571 -6.05,7.715c0,2.439 0.495,4.311 1.484,5.614c0.989,1.303 2.447,1.955 4.373,1.956c1.749,-0.022 3.477,-0.386 5.086,-1.074l0,2.664c-1.328,0.697 -3.001,1.046 -5.017,1.046Z" style="fill:#231f20;fill-rule:nonzero;"/><path d="M76.922,22.789c0.759,-1.033 1.572,-2.025 2.437,-2.973l6.58,-6.964l3.66,0l-8.253,8.681l8.83,11.685l-3.737,0l-7.193,-9.629l-2.324,2.016l0,7.613l-3.045,0l0,-28.932l3.045,0l0,15.336c0,0.682 -0.049,1.735 -0.148,3.16l0.148,0.007Z" style="fill:#231f20;fill-rule:nonzero;"/><path d="M137.178,27.426c0,1.849 -0.689,3.273 -2.066,4.27c-1.378,0.998 -3.312,1.505 -5.802,1.522c-2.635,0 -4.689,-0.417 -6.163,-1.251l0,-2.785c0.979,0.493 2.009,0.876 3.072,1.142c1.031,0.27 2.091,0.41 3.156,0.418c1.571,0 2.779,-0.251 3.626,-0.752c0.847,-0.501 1.27,-1.266 1.27,-2.293c0,-0.773 -0.336,-1.435 -1.006,-1.984c-0.671,-0.55 -1.98,-1.204 -3.927,-1.963c-1.849,-0.689 -3.163,-1.291 -3.943,-1.804c-0.707,-0.441 -1.303,-1.039 -1.74,-1.749c-0.396,-0.715 -0.594,-1.523 -0.571,-2.339c-0.045,-1.535 0.706,-2.989 1.984,-3.84c1.317,-0.938 3.124,-1.407 5.421,-1.407c2.158,0.002 4.294,0.444 6.275,1.3l-1.069,2.447c-1.994,-0.822 -3.801,-1.233 -5.421,-1.233c-1.426,0 -2.502,0.223 -3.227,0.67c-0.725,0.447 -1.088,1.066 -1.088,1.857c-0.014,0.485 0.13,0.961 0.409,1.359c0.357,0.445 0.805,0.81 1.314,1.069c0.604,0.338 1.764,0.827 3.481,1.468c2.352,0.858 3.944,1.724 4.777,2.599c0.833,0.876 1.246,1.968 1.238,3.279Z" style="fill:#231f20;fill-rule:nonzero;"/><path d="M145.707,6.948c0,-0.717 0.175,-1.242 0.527,-1.574c0.741,-0.669 1.881,-0.669 2.621,0c0.361,0.341 0.541,0.866 0.541,1.574c0,0.708 -0.182,1.233 -0.547,1.574c-0.347,0.34 -0.816,0.527 -1.301,0.52c-0.493,0.014 -0.971,-0.174 -1.322,-0.52c-0.346,-0.35 -0.519,-0.875 -0.519,-1.574Zm3.395,26.27l-3.138,0l0,-20.668l3.131,0l0.007,20.668Z" style="fill:#231f20;fill-rule:nonzero;"/><path d="M171.787,33.218l0,-13.145c0,-1.656 -0.381,-2.892 -1.144,-3.707c-0.762,-0.815 -1.947,-1.224 -3.554,-1.225c-2.135,0 -3.699,0.575 -4.691,1.724c-0.992,1.149 -1.488,3.048 -1.488,5.695l0,10.658l-3.082,0l0,-20.313l2.512,0l0.503,2.781l0.148,0c0.648,-1.014 1.574,-1.822 2.669,-2.328c1.191,-0.56 2.495,-0.843 3.812,-0.825c2.457,0 4.306,0.59 5.546,1.771c1.24,1.181 1.861,3.068 1.862,5.663l0,13.251l-3.093,0Z" style="fill:#231f20;fill-rule:nonzero;"/><path d="M218.017,12.456c0.811,-0.008 1.622,0.066 2.418,0.221l-0.425,2.836c-0.727,-0.171 -1.47,-0.263 -2.216,-0.276c-1.639,0 -3.04,0.665 -4.202,1.995c-1.162,1.33 -1.744,2.986 -1.745,4.968l0,10.857l-3.063,0l0,-20.232l2.53,0l0.351,3.747l0.148,0c0.656,-1.212 1.586,-2.255 2.715,-3.046c1.027,-0.703 2.244,-1.077 3.489,-1.07l0,0Z" style="fill:#231f20;fill-rule:nonzero;"/></g></svg>
