<?xml version="1.0" encoding="UTF-8" standalone="no"?><!DOCTYPE svg PUBLIC "-//W3C//DTD SVG 1.1//EN" "http://www.w3.org/Graphics/SVG/1.1/DTD/svg11.dtd"><svg class="flygande" width="100%" height="100%" viewBox="0 0 180 41" version="1.1" xmlns="http://www.w3.org/2000/svg" xmlns:xlink="http://www.w3.org/1999/xlink" xml:space="preserve" style="fill-rule:evenodd;clip-rule:evenodd;stroke-linejoin:round;stroke-miterlimit:1.41421;"><path d="M3.74,28.426l-3.341,0l0,-28.301l16.04,0l0,2.928l-12.697,0l0,10.357l11.927,0l0,2.924l-11.929,0l0,12.092Z" style="fill:#231f20;fill-rule:nonzero;"/><clipPath id="_clip1"><rect x="25.056" y="-0.89" width="3.026" height="29.316"/></clipPath><g clip-path="url(#_clip1)"><rect x="25.159" y="-0.31" width="3.066" height="28.749" style="fill:#231f20;fill-rule:nonzero;"/></g><path d="M99.964,28.05l-0.605,-2.862l-0.147,0c-1.002,1.261 -2.004,2.114 -3.006,2.56c-1.002,0.445 -2.245,0.672 -3.728,0.678c-1.994,0 -3.56,-0.514 -4.698,-1.541c-1.137,-1.027 -1.701,-2.489 -1.691,-4.385c0,-4.062 3.248,-6.191 9.745,-6.389l3.412,-0.111l0,-1.253c0,-1.578 -0.34,-2.743 -1.019,-3.495c-0.679,-0.752 -1.764,-1.127 -3.256,-1.127c-1.676,0 -3.572,0.513 -5.687,1.54l-0.94,-2.33c1.03,-0.553 2.123,-0.978 3.256,-1.266c1.16,-0.303 2.353,-0.457 3.552,-0.458c2.397,0 4.174,0.532 5.33,1.597c1.156,1.064 1.735,2.773 1.736,5.126l0,13.716l-2.254,0Zm-6.881,-2.148c1.896,0 3.386,-0.519 4.468,-1.559c1.082,-1.04 1.624,-2.497 1.625,-4.373l0,-1.817l-3.046,0.126c-2.422,0.086 -4.168,0.461 -5.238,1.128c-1.07,0.666 -1.605,1.703 -1.605,3.109c0,1.102 0.333,1.94 1,2.515c0.666,0.574 1.599,0.865 2.798,0.871l-0.002,0Z" style="fill:#231f20;fill-rule:nonzero;"/><path d="M124.684,28.426l0,-13.145c0,-1.657 -0.381,-2.893 -1.143,-3.708c-0.763,-0.815 -1.948,-1.223 -3.555,-1.225c-2.135,0 -3.698,0.575 -4.691,1.724c-0.992,1.15 -1.488,3.048 -1.488,5.696l0,10.658l-3.082,0l0,-20.314l2.512,0l0.503,2.781l0.149,0c0.647,-1.014 1.574,-1.822 2.668,-2.327c1.191,-0.561 2.495,-0.843 3.812,-0.826c2.458,0 4.306,0.59 5.547,1.771c1.24,1.181 1.861,3.069 1.862,5.663l0,13.252l-3.094,0Z" style="fill:#231f20;fill-rule:nonzero;"/><path d="M150.989,25.366l-0.165,0c-1.395,2.04 -3.486,3.06 -6.274,3.06c-2.618,0 -4.655,-0.895 -6.11,-2.686c-1.454,-1.79 -2.182,-4.335 -2.182,-7.633c0,-3.299 0.731,-5.862 2.192,-7.688c1.461,-1.827 3.494,-2.744 6.1,-2.751c2.716,0 4.798,0.986 6.246,2.958l0.238,0l-0.127,-1.442l-0.073,-1.406l0,-8.152l3.031,0l0,28.426l-2.467,0l-0.409,-2.686Zm-6.063,0.511c2.07,0 3.57,-0.561 4.501,-1.683c0.932,-1.122 1.397,-2.939 1.397,-5.452l0,-0.639c0,-2.836 -0.472,-4.861 -1.415,-6.072c-0.944,-1.212 -2.451,-1.818 -4.52,-1.818c-1.778,0 -3.139,0.691 -4.083,2.072c-0.944,1.381 -1.414,3.333 -1.412,5.855c0,2.557 0.469,4.49 1.407,5.798c0.937,1.307 2.315,1.954 4.132,1.941l-0.007,-0.002Z" style="fill:#231f20;fill-rule:nonzero;"/><path d="M171.882,28.425c-2.951,0 -5.277,-0.902 -6.977,-2.705c-1.7,-1.804 -2.553,-4.3 -2.56,-7.489c0,-3.219 0.793,-5.775 2.377,-7.67c1.585,-1.894 3.71,-2.842 6.377,-2.845c2.502,0 4.48,0.824 5.933,2.472c1.452,1.648 2.181,3.819 2.186,6.513l0,1.912l-13.753,0c0.061,2.345 0.653,4.124 1.776,5.338c1.123,1.214 2.707,1.821 4.753,1.823c2.196,-0.01 4.366,-0.469 6.377,-1.349l0,2.694c-0.975,0.431 -1.992,0.763 -3.033,0.992c-1.138,0.222 -2.296,0.327 -3.456,0.314l0,0Zm-0.82,-18.173c-1.604,0 -2.882,0.522 -3.836,1.567c-0.954,1.045 -1.514,2.49 -1.679,4.336l10.447,0c0,-1.907 -0.425,-3.368 -1.276,-4.383c-0.851,-1.015 -2.069,-1.522 -3.656,-1.52Z" style="fill:#231f20;fill-rule:nonzero;"/><path d="M80.472,8.93l0,2.039l-4.036,0.462c0.947,1.227 1.45,2.727 1.428,4.263c0,2.085 -0.731,3.749 -2.191,4.993c-1.46,1.244 -3.465,1.866 -6.015,1.866c-0.615,0.004 -1.23,-0.048 -1.836,-0.155c-1.407,0.725 -2.111,1.638 -2.111,2.739c-0.028,0.532 0.259,1.034 0.737,1.291c0.491,0.279 1.334,0.418 2.529,0.418l3.865,0c2.363,0 4.179,0.485 5.448,1.456c1.269,0.971 1.903,2.382 1.903,4.235c0,2.357 -0.97,4.154 -2.909,5.391c-1.939,1.237 -4.767,1.849 -8.485,1.836c-2.855,0 -5.056,-0.518 -6.602,-1.553c-1.546,-1.036 -2.32,-2.5 -2.321,-4.391c-0.022,-1.236 0.433,-2.436 1.275,-3.36c0.85,-0.945 2.045,-1.586 3.585,-1.923c-0.564,-0.253 -1.049,-0.649 -1.403,-1.146c-0.381,-0.528 -0.58,-1.161 -0.567,-1.806c-0.015,-0.729 0.209,-1.443 0.638,-2.039c0.425,-0.583 1.095,-1.146 2.012,-1.691c-1.147,-0.468 -2.113,-1.277 -2.76,-2.312c-0.718,-1.116 -1.088,-2.412 -1.065,-3.73c0,-2.331 0.718,-4.128 2.152,-5.391c1.435,-1.262 3.465,-1.892 6.093,-1.889c1.043,-0.01 2.083,0.124 3.088,0.397l7.548,0Zm-17.41,24.866c-0.043,1.076 0.534,2.089 1.493,2.622c0.995,0.596 2.423,0.893 4.283,0.893c2.775,0 4.83,-0.404 6.164,-1.213c1.334,-0.809 2.002,-1.908 2.003,-3.296c0,-1.153 -0.365,-1.952 -1.095,-2.399c-0.731,-0.447 -2.105,-0.671 -4.123,-0.671l-3.965,0c-1.495,0 -2.664,0.35 -3.506,1.049c-0.841,0.699 -1.26,1.704 -1.254,3.015Zm1.793,-18.046c0,1.489 0.431,2.616 1.295,3.381c0.863,0.766 2.065,1.145 3.606,1.138c3.229,0 4.844,-1.525 4.844,-4.575c0,-3.199 -1.632,-4.798 -4.895,-4.798c-1.554,0 -2.749,0.408 -3.586,1.223c-0.836,0.816 -1.258,2.024 -1.264,3.625l0,0.006Z" style="fill:#231f20;fill-rule:nonzero;"/><path d="M36.56,7.863l3.462,0l4.664,11.839c1.024,2.704 1.66,4.656 1.907,5.857l0.155,0c0.168,-0.647 0.522,-1.747 1.059,-3.299c0.538,-1.553 2.3,-6.352 5.284,-14.397l3.462,0l-9.162,23.654c-0.908,2.338 -1.97,3.996 -3.187,4.974c-1.216,0.979 -2.701,1.463 -4.455,1.454c-0.982,0.001 -1.961,-0.108 -2.918,-0.322l0,-2.523c0.786,0.158 1.587,0.235 2.39,0.227c2.218,0 3.8,-1.213 4.746,-3.639l1.195,-2.956l-8.602,-20.869Z" style="fill:#231f20;fill-rule:nonzero;"/></svg>
