<?xml version="1.0" encoding="UTF-8" standalone="no"?><!DOCTYPE svg PUBLIC "-//W3C//DTD SVG 1.1//EN" "http://www.w3.org/Graphics/SVG/1.1/DTD/svg11.dtd"><svg class="whila" width="100%" height="100%" viewBox="0 0 104 29" version="1.1" xmlns="http://www.w3.org/2000/svg" xmlns:xlink="http://www.w3.org/1999/xlink" xml:space="preserve" style="fill-rule:evenodd;clip-rule:evenodd;stroke-linejoin:round;stroke-miterlimit:1.41421;"><g><clipPath id="_clip1"><rect x="75.553" y="-0.707" width="3.026" height="29.316"/></clipPath><g clip-path="url(#_clip1)"><rect x="75.655" y="-0.126" width="3.066" height="28.749" style="fill:#231f20;fill-rule:nonzero;"/></g><path d="M45.514,28.6l-3.828,-12.245c-0.242,-0.749 -0.692,-2.45 -1.351,-5.103l-0.153,0c-0.508,2.222 -0.953,3.936 -1.333,5.142l-3.943,12.206l-3.657,0l-5.692,-20.866l3.315,0c1.346,5.243 2.371,9.236 3.075,11.979c0.705,2.743 1.108,4.591 1.209,5.542l0.152,0c0.14,-0.724 0.365,-1.66 0.677,-2.808c0.312,-1.148 0.582,-2.058 0.809,-2.73l3.826,-11.983l3.429,0l3.732,11.979c0.611,1.798 1.094,3.637 1.447,5.503l0.152,0c0.099,-0.711 0.235,-1.417 0.41,-2.114c0.222,-0.956 1.545,-6.079 3.97,-15.368l3.276,0l-5.77,20.866l-3.752,0Z" style="fill:#231f20;fill-rule:nonzero;"/><path d="M100.858,28.224l-0.605,-2.862l-0.147,0c-1.002,1.26 -2.004,2.113 -3.006,2.559c-1.002,0.446 -2.245,0.672 -3.728,0.679c-1.994,0 -3.56,-0.514 -4.697,-1.541c-1.138,-1.027 -1.702,-2.489 -1.692,-4.386c0,-4.061 3.249,-6.19 9.745,-6.388l3.412,-0.111l0,-1.253c0,-1.579 -0.339,-2.744 -1.018,-3.495c-0.679,-0.752 -1.765,-1.127 -3.257,-1.127c-1.676,0 -3.572,0.513 -5.687,1.54l-0.94,-2.33c1.03,-0.553 2.123,-0.978 3.257,-1.266c1.159,-0.303 2.352,-0.457 3.551,-0.459c2.397,0 4.174,0.533 5.33,1.598c1.157,1.064 1.735,2.773 1.737,5.125l0,13.717l-2.255,0Zm-6.881,-2.148c1.897,0 3.386,-0.52 4.468,-1.559c1.082,-1.04 1.624,-2.497 1.626,-4.373l0,-1.817l-3.046,0.126c-2.423,0.085 -4.169,0.461 -5.239,1.128c-1.07,0.666 -1.604,1.703 -1.604,3.109c0,1.101 0.333,1.939 0.999,2.514c0.667,0.575 1.599,0.866 2.798,0.872l-0.002,0Z" style="fill:#231f20;fill-rule:nonzero;"/><path d="M63.447,2.329c0,-0.717 0.176,-1.242 0.528,-1.574c0.74,-0.669 1.88,-0.669 2.621,0c0.361,0.341 0.541,0.866 0.541,1.574c0,0.709 -0.182,1.233 -0.547,1.575c-0.347,0.339 -0.816,0.526 -1.302,0.519c-0.492,0.014 -0.97,-0.173 -1.321,-0.519c-0.346,-0.351 -0.52,-0.875 -0.52,-1.575Zm3.396,26.271l-3.139,0l0,-20.669l3.131,0l0.008,20.669Z" style="fill:#231f20;fill-rule:nonzero;"/><path d="M13.972,28.579l0,-13.119c0,-1.654 -0.379,-2.887 -1.137,-3.701c-0.758,-0.813 -1.935,-1.221 -3.533,-1.222c-2.135,0 -3.693,0.58 -4.673,1.74c-0.98,1.159 -1.468,3.059 -1.463,5.699l0,10.611l-3.071,0l0,-28.801l3.071,0l0,8.716c0.011,0.872 -0.038,1.744 -0.147,2.609l0.189,0c0.627,-0.995 1.521,-1.793 2.581,-2.304c1.189,-0.577 2.499,-0.866 3.821,-0.841c2.48,0 4.339,0.589 5.579,1.768c1.239,1.178 1.858,3.05 1.858,5.616l0,13.229l-3.075,0Z" style="fill:#231f20;fill-rule:nonzero;"/></g></svg>
