<?xml version="1.0" encoding="UTF-8" standalone="no"?><!DOCTYPE svg PUBLIC "-//W3C//DTD SVG 1.1//EN" "http://www.w3.org/Graphics/SVG/1.1/DTD/svg11.dtd"><svg class="pa" width="100%" height="100%" viewBox="0 0 42 39" version="1.1" xmlns="http://www.w3.org/2000/svg" xmlns:xlink="http://www.w3.org/1999/xlink" xml:space="preserve" style="fill-rule:evenodd;clip-rule:evenodd;stroke-linejoin:round;stroke-miterlimit:1.41421;"><g><path d="M9.06,30.177c-1.205,0.015 -2.399,-0.227 -3.503,-0.708c-1.064,-0.478 -1.982,-1.229 -2.66,-2.178l-0.215,0c0.139,1.079 0.211,2.165 0.215,3.253l0,8.073l-2.974,0l0,-28.439l2.418,0l0.413,2.688l0.143,0c0.672,-0.996 1.592,-1.799 2.67,-2.33c1.094,-0.494 2.285,-0.739 3.486,-0.717c2.604,0 4.613,0.889 6.029,2.669c1.415,1.78 2.122,4.276 2.122,7.49c0,3.225 -0.719,5.733 -2.159,7.522c-1.44,1.79 -3.435,2.682 -5.985,2.677Zm-0.429,-17.828c-2.008,0 -3.459,0.555 -4.354,1.666c-0.896,1.11 -1.356,2.878 -1.38,5.304l0,0.662c0,2.76 0.46,4.734 1.38,5.923c0.92,1.189 2.395,1.783 4.425,1.783c1.697,0 3.026,-0.687 3.987,-2.06c0.962,-1.374 1.442,-3.27 1.442,-5.688c0,-2.446 -0.48,-4.324 -1.442,-5.634c-0.961,-1.31 -2.314,-1.965 -4.058,-1.964l0,0.008Z" style="fill:#231f20;fill-rule:nonzero;"/><path d="M39.348,29.981l-0.594,-2.809l-0.144,0c-0.98,1.233 -1.961,2.068 -2.941,2.504c-0.98,0.436 -2.198,0.654 -3.653,0.654c-1.951,0 -3.483,-0.502 -4.596,-1.507c-1.113,-1.005 -1.664,-2.435 -1.655,-4.291c0,-3.973 3.178,-6.057 9.534,-6.251l3.339,-0.108l0,-1.221c0,-1.544 -0.332,-2.684 -0.996,-3.419c-0.665,-0.736 -1.727,-1.103 -3.186,-1.103c-1.64,0 -3.495,0.502 -5.565,1.507l-0.919,-2.279c1.007,-0.542 2.077,-0.958 3.186,-1.24c1.134,-0.296 2.302,-0.447 3.474,-0.448c2.346,0 4.084,0.521 5.216,1.563c1.131,1.041 1.697,2.711 1.697,5.009l0,13.421l-2.197,0.018Zm-6.733,-2.101c1.856,0 3.313,-0.509 4.372,-1.526c1.059,-1.017 1.589,-2.442 1.589,-4.273l0,-1.777l-2.981,0.125c-2.37,0.083 -4.078,0.451 -5.125,1.103c-1.047,0.652 -1.57,1.666 -1.57,3.042c0,1.078 0.326,1.898 0.978,2.46c0.652,0.563 1.564,0.845 2.737,0.846l0,0Zm5.907,-24.083c0,1.172 -0.367,2.115 -1.103,2.827c-0.735,0.712 -1.716,1.068 -2.941,1.068c-1.209,0 -2.172,-0.35 -2.89,-1.05c-0.718,-0.699 -1.078,-1.636 -1.078,-2.809c0,-1.173 0.363,-2.103 1.087,-2.792c0.724,-0.689 1.685,-1.033 2.881,-1.033c1.208,0 2.184,0.356 2.926,1.068c0.745,0.708 1.152,1.703 1.118,2.73l0,-0.009Zm-1.939,0.036c0,-0.67 -0.198,-1.188 -0.592,-1.553c-0.87,-0.727 -2.148,-0.727 -3.017,0c-0.395,0.368 -0.592,0.885 -0.592,1.553c0,0.668 0.179,1.186 0.539,1.554c0.359,0.367 0.88,0.551 1.562,0.551c0.558,0.023 1.104,-0.175 1.517,-0.551c0.388,-0.361 0.583,-0.876 0.583,-1.546l0,-0.008Z" style="fill:#231f20;fill-rule:nonzero;"/></g></svg>
