<?xml version="1.0" encoding="UTF-8" standalone="no"?><!DOCTYPE svg PUBLIC "-//W3C//DTD SVG 1.1//EN" "http://www.w3.org/Graphics/SVG/1.1/DTD/svg11.dtd"><svg class="mjuka" width="100%" height="100%" viewBox="0 0 114 40" version="1.1" xmlns="http://www.w3.org/2000/svg" xmlns:xlink="http://www.w3.org/1999/xlink" xml:space="preserve" style="fill-rule:evenodd;clip-rule:evenodd;stroke-linejoin:round;stroke-miterlimit:1.41421;"><path d="M111.32,29.449l-0.605,-2.862l-0.147,0c-1.002,1.261 -2.004,2.114 -3.006,2.56c-1.002,0.445 -2.245,0.672 -3.728,0.678c-1.994,0 -3.56,-0.514 -4.697,-1.541c-1.138,-1.027 -1.701,-2.489 -1.691,-4.385c0,-4.061 3.248,-6.191 9.744,-6.389l3.412,-0.111l0,-1.253c0,-1.578 -0.339,-2.743 -1.018,-3.495c-0.679,-0.752 -1.764,-1.127 -3.256,-1.127c-1.676,0 -3.572,0.513 -5.688,1.54l-0.94,-2.329c1.03,-0.554 2.124,-0.979 3.257,-1.267c1.159,-0.303 2.353,-0.457 3.551,-0.458c2.398,0 4.174,0.532 5.331,1.597c1.156,1.065 1.735,2.773 1.736,5.126l0,13.716l-2.255,0Zm-6.881,-2.148c1.897,0 3.386,-0.519 4.468,-1.559c1.083,-1.04 1.624,-2.497 1.626,-4.372l0,-1.817l-3.046,0.125c-2.423,0.086 -4.169,0.461 -5.239,1.128c-1.069,0.666 -1.604,1.703 -1.604,3.11c0,1.101 0.333,1.939 0.999,2.514c0.667,0.575 1.599,0.865 2.798,0.871l-0.002,0Z" style="fill:#231f20;fill-rule:nonzero;"/><path d="M79.209,19.396c0.759,-1.034 1.572,-2.026 2.436,-2.973l6.58,-6.965l3.661,0l-8.254,8.682l8.83,11.685l-3.736,0l-7.193,-9.63l-2.324,2.016l0,7.614l-3.046,0l0,-28.933l3.046,0l0,15.337c0,0.681 -0.05,1.734 -0.149,3.159l0.149,0.008Z" style="fill:#231f20;fill-rule:nonzero;"/><path d="M26.588,29.823l0,-13.188c0,-1.615 -0.345,-2.826 -1.036,-3.635c-0.691,-0.808 -1.764,-1.212 -3.22,-1.212c-1.911,0 -3.323,0.549 -4.235,1.646c-0.911,1.097 -1.368,2.787 -1.369,5.068l0,11.321l-3.068,0l0,-13.188c0,-1.615 -0.346,-2.826 -1.036,-3.635c-0.691,-0.808 -1.77,-1.212 -3.237,-1.212c-1.923,0 -3.332,0.577 -4.226,1.729c-0.894,1.153 -1.341,3.044 -1.341,5.673l0,10.635l-3.07,0l0,-20.266l2.496,0l0.499,2.767l0.147,0c0.581,-0.988 1.431,-1.79 2.451,-2.312c1.094,-0.565 2.311,-0.85 3.542,-0.832c3.169,0 5.241,1.147 6.214,3.44l0.146,0c0.617,-1.076 1.53,-1.952 2.631,-2.523c1.209,-0.632 2.557,-0.95 3.92,-0.924c2.293,0 4.011,0.589 5.152,1.767c1.142,1.178 1.71,3.061 1.705,5.649l0,13.224l-3.065,0.008Z" style="fill:#231f20;fill-rule:nonzero;"/><path d="M53.874,9.112l0,13.19c0,1.658 0.38,2.894 1.14,3.71c0.76,0.815 1.937,1.224 3.53,1.225c2.128,0 3.683,-0.581 4.666,-1.744c0.982,-1.162 1.474,-3.062 1.474,-5.699l0,-10.682l3.079,0l0,20.327l-2.534,0l-0.445,-2.728l-0.161,0c-0.634,1.01 -1.548,1.815 -2.631,2.314c-1.201,0.546 -2.509,0.816 -3.828,0.79c-2.473,0 -4.326,-0.588 -5.557,-1.763c-1.231,-1.175 -1.848,-3.055 -1.852,-5.638l0,-13.298l3.119,-0.004Z" style="fill:#231f20;fill-rule:nonzero;"/><path d="M35.501,39.241c-1.337,0 -2.418,-0.161 -3.243,-0.482l0,-2.594c0.932,0.255 1.899,0.388 2.871,0.395c1.099,0 1.904,-0.273 2.418,-0.819c0.513,-0.546 0.769,-1.378 0.769,-2.497l0,-24.599l3.499,0l0,24.36c0,4.157 -2.105,6.236 -6.314,6.236Zm2.513,-36.32c0,-0.733 0.196,-1.269 0.59,-1.609c0.829,-0.684 2.105,-0.684 2.934,0c0.415,0.349 0.623,0.885 0.623,1.609c0,0.724 -0.204,1.26 -0.612,1.609c-0.389,0.347 -0.914,0.538 -1.458,0.531c-0.551,0.014 -1.086,-0.178 -1.478,-0.531c-0.4,-0.358 -0.599,-0.894 -0.599,-1.609Z" style="fill:#231f20;fill-rule:nonzero;"/></svg>
