<?xml version="1.0" encoding="UTF-8" standalone="no"?><!DOCTYPE svg PUBLIC "-//W3C//DTD SVG 1.1//EN" "http://www.w3.org/Graphics/SVG/1.1/DTD/svg11.dtd"><svg class="soka" width="100%" height="100%" viewBox="0 0 91 30" version="1.1" xmlns="http://www.w3.org/2000/svg" xmlns:xlink="http://www.w3.org/1999/xlink" xml:space="preserve" style="fill-rule:evenodd;clip-rule:evenodd;stroke-linejoin:round;stroke-miterlimit:1.41421;"><g><path d="M88.01,28.47l-0.605,-2.862l-0.147,0c-1.002,1.26 -2.004,2.113 -3.006,2.559c-1.002,0.446 -2.245,0.672 -3.728,0.678c-1.994,0 -3.56,-0.513 -4.697,-1.54c-1.138,-1.028 -1.702,-2.489 -1.692,-4.386c0,-4.061 3.249,-6.19 9.745,-6.388l3.412,-0.111l0,-1.254c0,-1.578 -0.339,-2.743 -1.018,-3.494c-0.679,-0.752 -1.765,-1.128 -3.257,-1.128c-1.676,0 -3.572,0.514 -5.687,1.541l-0.94,-2.33c1.03,-0.553 2.123,-0.979 3.257,-1.266c1.159,-0.303 2.352,-0.457 3.551,-0.459c2.397,0 4.174,0.533 5.33,1.597c1.157,1.065 1.735,2.774 1.737,5.126l0,13.717l-2.255,0Zm-6.881,-2.148c1.897,0 3.386,-0.52 4.468,-1.56c1.082,-1.039 1.624,-2.497 1.626,-4.372l0,-1.817l-3.046,0.126c-2.423,0.085 -4.169,0.461 -5.239,1.127c-1.07,0.667 -1.605,1.703 -1.605,3.11c0,1.101 0.334,1.939 1,2.514c0.667,0.575 1.599,0.866 2.798,0.872l-0.002,0Z" style="fill:#231f20;fill-rule:nonzero;"/><path d="M52.375,18.416c0.759,-1.033 1.572,-2.026 2.436,-2.973l6.581,-6.965l3.66,0l-8.254,8.682l8.831,11.685l-3.737,0l-7.193,-9.629l-2.324,2.016l0,7.613l-3.046,0l0,-28.932l3.046,0l0,15.336c0,0.681 -0.05,1.735 -0.149,3.16l0.149,0.007Z" style="fill:#231f20;fill-rule:nonzero;"/><path d="M14.229,23.053c0,1.849 -0.689,3.272 -2.066,4.27c-1.378,0.998 -3.312,1.505 -5.802,1.522c-2.635,0 -4.69,-0.417 -6.164,-1.251l0,-2.785c0.979,0.493 2.01,0.876 3.073,1.142c1.03,0.27 2.091,0.41 3.156,0.418c1.571,0 2.779,-0.251 3.626,-0.752c0.846,-0.501 1.27,-1.266 1.27,-2.293c0,-0.773 -0.336,-1.435 -1.007,-1.985c-0.671,-0.549 -1.979,-1.203 -3.926,-1.962c-1.849,-0.689 -3.164,-1.291 -3.943,-1.804c-0.708,-0.441 -1.303,-1.04 -1.74,-1.749c-0.397,-0.715 -0.594,-1.523 -0.572,-2.339c-0.045,-1.535 0.707,-2.989 1.985,-3.84c1.317,-0.938 3.124,-1.407 5.421,-1.407c2.158,0.002 4.293,0.444 6.275,1.3l-1.07,2.447c-1.993,-0.822 -3.8,-1.233 -5.421,-1.233c-1.425,0 -2.501,0.223 -3.226,0.67c-0.725,0.447 -1.088,1.066 -1.088,1.857c-0.014,0.485 0.129,0.961 0.408,1.358c0.358,0.446 0.806,0.811 1.315,1.07c0.604,0.338 1.764,0.827 3.481,1.468c2.351,0.858 3.944,1.724 4.777,2.599c0.832,0.875 1.245,1.968 1.238,3.279Z" style="fill:#231f20;fill-rule:nonzero;"/><path d="M40.79,18.4c0,3.196 -0.804,5.691 -2.414,7.486c-1.609,1.795 -3.833,2.695 -6.672,2.7c-1.641,0.03 -3.258,-0.398 -4.669,-1.235c-1.377,-0.842 -2.474,-2.076 -3.149,-3.542c-0.74,-1.539 -1.109,-3.339 -1.108,-5.402c0,-3.195 0.799,-5.684 2.398,-7.467c1.598,-1.783 3.816,-2.678 6.652,-2.685c2.743,0 4.922,0.912 6.537,2.736c1.616,1.824 2.424,4.294 2.425,7.409Zm-14.935,0c0,2.504 0.501,4.412 1.502,5.724c1.002,1.311 2.474,1.967 4.418,1.967c1.944,0 3.42,-0.653 4.427,-1.958c1.007,-1.305 1.511,-3.216 1.511,-5.733c0,-2.492 -0.504,-4.385 -1.511,-5.678c-1.007,-1.293 -2.495,-1.94 -4.464,-1.941c-1.944,0 -3.409,0.638 -4.395,1.914c-0.987,1.276 -1.483,3.177 -1.488,5.705Zm0.876,-15.091c0,-0.62 0.158,-1.067 0.474,-1.34c0.314,-0.274 0.719,-0.421 1.136,-0.412c0.427,-0.009 0.844,0.137 1.172,0.412c0.332,0.27 0.498,0.716 0.498,1.34c0,0.596 -0.164,1.041 -0.492,1.334c-0.321,0.289 -0.741,0.446 -1.173,0.438c-0.421,0.007 -0.829,-0.15 -1.135,-0.438c-0.32,-0.297 -0.48,-0.741 -0.48,-1.334Zm6.815,0c0,-0.62 0.158,-1.067 0.475,-1.34c0.314,-0.274 0.719,-0.421 1.135,-0.412c0.422,-0.007 0.832,0.139 1.154,0.412c0.329,0.274 0.493,0.721 0.493,1.34c0,0.596 -0.164,1.041 -0.493,1.334c-0.315,0.287 -0.728,0.443 -1.154,0.438c-0.421,0.007 -0.829,-0.15 -1.135,-0.438c-0.317,-0.297 -0.475,-0.741 -0.475,-1.334Z" style="fill:#231f20;fill-rule:nonzero;"/></g></svg>
