<?xml version="1.0" encoding="UTF-8" standalone="no"?><!DOCTYPE svg PUBLIC "-//W3C//DTD SVG 1.1//EN" "http://www.w3.org/Graphics/SVG/1.1/DTD/svg11.dtd"><svg class="tuvor" width="100%" height="100%" viewBox="0 0 114 26" version="1.1" xmlns="http://www.w3.org/2000/svg" xmlns:xlink="http://www.w3.org/1999/xlink" xml:space="preserve" style="fill-rule:evenodd;clip-rule:evenodd;stroke-linejoin:round;stroke-miterlimit:1.41421;"><path d="M110.532,5.185c0.812,-0.008 1.622,0.066 2.418,0.221l-0.425,2.836c-0.727,-0.171 -1.47,-0.263 -2.216,-0.276c-1.639,0 -3.039,0.665 -4.202,1.995c-1.162,1.33 -1.744,2.986 -1.745,4.967l0,10.858l-3.063,0l0,-20.232l2.53,0l0.352,3.747l0.147,0c0.657,-1.212 1.586,-2.255 2.715,-3.046c1.027,-0.704 2.244,-1.077 3.489,-1.07l0,0Z" style="fill:#231f20;fill-rule:nonzero;"/><path d="M24.238,4.898l0,13.189c0,1.658 0.38,2.895 1.14,3.71c0.76,0.816 1.936,1.224 3.53,1.226c2.127,0 3.682,-0.582 4.665,-1.744c0.983,-1.163 1.474,-3.062 1.474,-5.699l0,-10.682l3.08,0l0,20.326l-2.534,0l-0.445,-2.727l-0.161,0c-0.634,1.01 -1.548,1.814 -2.632,2.313c-1.2,0.547 -2.508,0.817 -3.827,0.791c-2.474,0 -4.326,-0.588 -5.557,-1.763c-1.231,-1.176 -1.848,-3.055 -1.852,-5.639l0,-13.297l3.119,-0.004Z" style="fill:#231f20;fill-rule:nonzero;"/><path d="M9.793,23.058c0.53,0.002 1.06,-0.038 1.583,-0.12c0.409,-0.059 0.813,-0.143 1.212,-0.252l0,2.366c-0.473,0.2 -0.971,0.334 -1.481,0.4c-0.581,0.099 -1.17,0.152 -1.76,0.158c-3.949,0 -5.923,-2.079 -5.923,-6.239l0,-12.144l-2.931,0l0,-1.484l2.924,-1.286l1.304,-4.358l1.789,0l0,4.73l5.923,0l0,2.403l-5.919,0l0,12.017c0,1.23 0.292,2.173 0.876,2.831c0.583,0.657 1.385,0.983 2.403,0.978Z" style="fill:#231f20;fill-rule:nonzero;"/><path d="M54.635,25.786l-7.945,-20.928l3.399,0l4.499,12.416c1.018,2.904 1.617,4.788 1.795,5.654l0.153,0c0.139,-0.675 0.582,-2.073 1.328,-4.193c0.746,-2.12 2.419,-6.748 5.019,-13.883l3.403,0l-7.945,20.928l-3.706,0.006Z" style="fill:#231f20;fill-rule:nonzero;"/><path d="M92.776,15.268c0,3.247 -0.817,5.783 -2.453,7.607c-1.635,1.824 -3.893,2.735 -6.773,2.734c-1.667,0.03 -3.31,-0.404 -4.744,-1.255c-1.402,-0.855 -2.518,-2.109 -3.205,-3.601c-0.752,-1.564 -1.128,-3.393 -1.126,-5.489c0,-3.247 0.812,-5.777 2.436,-7.588c1.624,-1.812 3.878,-2.718 6.762,-2.718c2.787,0 5.001,0.927 6.643,2.781c1.641,1.854 2.462,4.363 2.46,7.529Zm-15.176,0c0,2.545 0.508,4.484 1.526,5.816c1.017,1.333 2.514,1.999 4.489,1.999c1.976,0 3.475,-0.663 4.499,-1.989c1.024,-1.327 1.535,-3.269 1.535,-5.826c0,-2.533 -0.511,-4.456 -1.535,-5.77c-1.024,-1.314 -2.536,-1.972 -4.536,-1.973c-1.975,0 -3.464,0.648 -4.467,1.945c-1.003,1.297 -1.508,3.229 -1.517,5.798l0.006,0Z" style="fill:#231f20;fill-rule:nonzero;"/></svg>
